{
  "accessors": [
    {
      "bufferView": 1,
      "componentType": 5126,
      "count": 65532,
      "max": [
        244.1114044189453,
        712.9740600585938,
        183.24282836914063
      ],
      "min": [
        -253.31336975097656,
        153.31195068359375,
        6.259918212890625
      ],
      "type": "VEC3"
    },
    {
      "bufferView": 1,
      "byteOffset": 786384,
      "componentType": 5126,
      "count": 65532,
      "max": [
        1.0,
        0.9999907612800598,
        1.0
      ],
      "min": [
        -1.0,
        -1.0,
        -1.0
      ],
      "type": "VEC3"
    },
    {
      "bufferView": 0,
      "componentType": 5125,
      "count": 333312,
      "type": "SCALAR"
    },
    {
      "bufferView": 1,
      "byteOffset": 1572768,
      "componentType": 5126,
      "count": 65532,
      "max": [
        255.3653564453125,
        719.94140625,
        184.99038696289063
      ],
      "min": [
        -246.2997589111328,
        541.3494873046875,
        6.5345001220703125
      ],
      "type": "VEC3"
    },
    {
      "bufferView": 1,
      "byteOffset": 2359152,
      "componentType": 5126,
      "count": 65532,
      "max": [
        1.0,
        0.9999880194664001,
        0.9999983906745911
      ],
      "min": [
        -0.999994695186615,
        -0.9999908804893494,
        -0.999984860420227
      ],
      "type": "VEC3"
    },
    {
      "bufferView": 0,
      "byteOffset": 1333248,
      "componentType": 5125,
      "count": 330834,
      "type": "SCALAR"
    },
    {
      "bufferView": 1,
      "byteOffset": 3145536,
      "componentType": 5126,
      "count": 65532,
      "max": [
        247.39332580566406,
        721.7112426757813,
        185.82728576660156
      ],
      "min": [
        -245.86260986328125,
        538.5646362304688,
        3.1349945068359375
      ],
      "type": "VEC3"
    },
    {
      "bufferView": 1,
      "byteOffset": 3931920,
      "componentType": 5126,
      "count": 65532,
      "max": [
        0.9999398589134216,
        0.9999464154243469,
        0.9999857544898987
      ],
      "min": [
        -0.9999266266822815,
        -0.9999464750289917,
        -0.99998539686203
      ],
      "type": "VEC3"
    },
    {
      "bufferView": 0,
      "byteOffset": 2656584,
      "componentType": 5125,
      "count": 322110,
      "type": "SCALAR"
    },
    {
      "bufferView": 1,
      "byteOffset": 4718304,
      "componentType": 5126,
      "count": 65532,
      "max": [
        251.59146118164063,
        718.9263305664063,
        182.4277801513672
      ],
      "min": [
        122.74947357177734,
        -261.91302490234375,
        0.0
      ],
      "type": "VEC3"
    },
    {
      "bufferView": 1,
      "byteOffset": 5504688,
      "componentType": 5126,
      "count": 65532,
      "max": [
        0.9999992847442627,
        0.9999891519546509,
        0.9999984502792358
      ],
      "min": [
        -0.9999830722808838,
        -0.9999912977218628,
        -0.9999854564666748
      ],
      "type": "VEC3"
    },
    {
      "bufferView": 0,
      "byteOffset": 3945024,
      "componentType": 5125,
      "count": 334113,
      "type": "SCALAR"
    },
    {
      "bufferView": 1,
      "byteOffset": 6291072,
      "componentType": 5126,
      "count": 65532,
      "max": [
        252.32093811035156,
        672.548828125,
        182.42787170410156
      ],
      "min": [
        -256.00006103515625,
        -498.75006103515625,
        15.123970031738281
      ],
      "type": "VEC3"
    },
    {
      "bufferView": 1,
      "byteOffset": 7077456,
      "componentType": 5126,
      "count": 65532,
      "max": [
        1.0,
        1.0,
        1.0
      ],
      "min": [
        -1.0,
        -1.0,
        -1.0
      ],
      "type": "VEC3"
    },
    {
      "bufferView": 0,
      "byteOffset": 5281476,
      "componentType": 5125,
      "count": 325458,
      "type": "SCALAR"
    },
    {
      "bufferView": 1,
      "byteOffset": 7863840,
      "componentType": 5126,
      "count": 65532,
      "max": [
        256.00006103515625,
        777.8035888671875,
        246.46356201171875
      ],
      "min": [
        -241.11111450195313,
        -263.75762939453125,
        0.0
      ],
      "type": "VEC3"
    },
    {
      "bufferView": 1,
      "byteOffset": 8650224,
      "componentType": 5126,
      "count": 65532,
      "max": [
        1.0,
        1.0,
        1.0
      ],
      "min": [
        -1.0,
        -0.9999957084655762,
        -1.0
      ],
      "type": "VEC3"
    },
    {
      "bufferView": 0,
      "byteOffset": 6583308,
      "componentType": 5125,
      "count": 333492,
      "type": "SCALAR"
    },
    {
      "bufferView": 1,
      "byteOffset": 9436608,
      "componentType": 5126,
      "count": 65532,
      "max": [
        251.4015350341797,
        804.5301513671875,
        281.19281005859375
      ],
      "min": [
        -246.3621063232422,
        -499.73016357421875,
        10.781997680664063
      ],
      "type": "VEC3"
    },
    {
      "bufferView": 1,
      "byteOffset": 10222992,
      "componentType": 5126,
      "count": 65532,
      "max": [
        1.0,
        1.0,
        1.0
      ],
      "min": [
        -1.0,
        -1.0,
        -1.0
      ],
      "type": "VEC3"
    },
    {
      "bufferView": 0,
      "byteOffset": 7917276,
      "componentType": 5125,
      "count": 310011,
      "type": "SCALAR"
    },
    {
      "bufferView": 1,
      "byteOffset": 11009376,
      "componentType": 5126,
      "count": 65532,
      "max": [
        251.18572998046875,
        -107.410888671875,
        173.46878051757813
      ],
      "min": [
        -246.73388671875,
        -263.42901611328125,
        10.977462768554688
      ],
      "type": "VEC3"
    },
    {
      "bufferView": 1,
      "byteOffset": 11795760,
      "componentType": 5126,
      "count": 65532,
      "max": [
        0.9999192953109741,
        0.9999504089355469,
        0.999984622001648
      ],
      "min": [
        -0.9999342560768127,
        -0.9999503493309021,
        -0.999984085559845
      ],
      "type": "VEC3"
    },
    {
      "bufferView": 0,
      "byteOffset": 9157320,
      "componentType": 5125,
      "count": 321765,
      "type": "SCALAR"
    },
    {
      "bufferView": 1,
      "byteOffset": 12582144,
      "componentType": 5126,
      "count": 31575,
      "max": [
        250.68087768554688,
        -108.9267578125,
        172.7233123779297
      ],
      "min": [
        135.8990020751953,
        -260.73956298828125,
        12.804801940917969
      ],
      "type": "VEC3"
    },
    {
      "bufferView": 1,
      "byteOffset": 12961044,
      "componentType": 5126,
      "count": 31575,
      "max": [
        0.9986595511436462,
        0.9998934864997864,
        0.9999859929084778
      ],
      "min": [
        -0.998711347579956,
        -0.9999054074287415,
        -0.9999856948852539
      ],
      "type": "VEC3"
    },
    {
      "bufferView": 0,
      "byteOffset": 10444380,
      "componentType": 5125,
      "count": 149370,
      "type": "SCALAR"
    }
  ],
  "asset": {
    "extras": {
      "author": "Vipexgamer1 (https://sketchfab.com/Vipexgamer1)",
      "license": "CC-BY-4.0 (http://creativecommons.org/licenses/by/4.0/)",
      "source": "https://sketchfab.com/3d-models/mercedes-amg-petronas-concept-fbc17940319c40929776b52d17285990",
      "title": "Mercedes amg petronas concept"
    },
    "generator": "Sketchfab-14.64.0",
    "version": "2.0"
  },
  "bufferViews": [
    {
      "buffer": 0,
      "byteLength": 11041860,
      "name": "floatBufferViews",
      "target": 34963
    },
    {
      "buffer": 0,
      "byteLength": 13339944,
      "byteOffset": 11041860,
      "byteStride": 12,
      "name": "floatBufferViews",
      "target": 34962
    }
  ],
  "buffers": [
    {
      "byteLength": 24381804,
      "uri": "scene.bin"
    }
  ],
  "materials": [
    {
      "doubleSided": true,
      "name": "Scene_-_Root",
      "pbrMetallicRoughness": {
        "metallicFactor": 0.0,
        "roughnessFactor": 0.6
      }
    }
  ],
  "meshes": [
    {
      "name": "Object_0",
      "primitives": [
        {
          "attributes": {
            "NORMAL": 1,
            "POSITION": 0
          },
          "indices": 2,
          "material": 0,
          "mode": 4
        }
      ]
    },
    {
      "name": "Object_1",
      "primitives": [
        {
          "attributes": {
            "NORMAL": 4,
            "POSITION": 3
          },
          "indices": 5,
          "material": 0,
          "mode": 4
        }
      ]
    },
    {
      "name": "Object_2",
      "primitives": [
        {
          "attributes": {
            "NORMAL": 7,
            "POSITION": 6
          },
          "indices": 8,
          "material": 0,
          "mode": 4
        }
      ]
    },
    {
      "name": "Object_3",
      "primitives": [
        {
          "attributes": {
            "NORMAL": 10,
            "POSITION": 9
          },
          "indices": 11,
          "material": 0,
          "mode": 4
        }
      ]
    },
    {
      "name": "Object_4",
      "primitives": [
        {
          "attributes": {
            "NORMAL": 13,
            "POSITION": 12
          },
          "indices": 14,
          "material": 0,
          "mode": 4
        }
      ]
    },
    {
      "name": "Object_5",
      "primitives": [
        {
          "attributes": {
            "NORMAL": 16,
            "POSITION": 15
          },
          "indices": 17,
          "material": 0,
          "mode": 4
        }
      ]
    },
    {
      "name": "Object_6",
      "primitives": [
        {
          "attributes": {
            "NORMAL": 19,
            "POSITION": 18
          },
          "indices": 20,
          "material": 0,
          "mode": 4
        }
      ]
    },
    {
      "name": "Object_7",
      "primitives": [
        {
          "attributes": {
            "NORMAL": 22,
            "POSITION": 21
          },
          "indices": 23,
          "material": 0,
          "mode": 4
        }
      ]
    },
    {
      "name": "Object_8",
      "primitives": [
        {
          "attributes": {
            "NORMAL": 25,
            "POSITION": 24
          },
          "indices": 26,
          "material": 0,
          "mode": 4
        }
      ]
    }
  ],
  "nodes": [
    {
      "children": [
        1
      ],
      "matrix": [
        1.0,
        0.0,
        0.0,
        0.0,
        0.0,
        2.220446049250313e-16,
        -1.0,
        0.0,
        0.0,
        1.0,
        2.220446049250313e-16,
        0.0,
        0.0,
        0.0,
        0.0,
        1.0
      ],
      "name": "Sketchfab_model"
    },
    {
      "children": [
        2,
        3,
        4,
        5,
        6,
        7,
        8,
        9,
        10
      ],
      "name": "mercf1.stl.cleaner.materialmerger.gles"
    },
    {
      "mesh": 0,
      "name": "Object_2"
    },
    {
      "mesh": 1,
      "name": "Object_3"
    },
    {
      "mesh": 2,
      "name": "Object_4"
    },
    {
      "mesh": 3,
      "name": "Object_5"
    },
    {
      "mesh": 4,
      "name": "Object_6"
    },
    {
      "mesh": 5,
      "name": "Object_7"
    },
    {
      "mesh": 6,
      "name": "Object_8"
    },
    {
      "mesh": 7,
      "name": "Object_9"
    },
    {
      "mesh": 8,
      "name": "Object_10"
    }
  ],
  "scene": 0,
  "scenes": [
    {
      "name": "Sketchfab_Scene",
      "nodes": [
        0
      ]
    }
  ]
}
